<?xml version="1.0" standalone="no"?>
<!DOCTYPE svg PUBLIC "-//W3C//DTD SVG 20010904//EN"
 "http://www.w3.org/TR/2001/REC-SVG-20010904/DTD/svg10.dtd">
<svg version="1.0" xmlns="http://www.w3.org/2000/svg"
 width="140.000000pt" height="106.000000pt" viewBox="0 0 140.000000 106.000000"
 preserveAspectRatio="xMidYMid meet">

<g transform="translate(0.000000,106.000000) scale(0.100000,-0.100000)"
fill="#000000" stroke="none">
<path d="M575 904 c-16 -8 -41 -26 -55 -38 -14 -13 -40 -31 -57 -40 -35 -18
-63 -61 -63 -98 0 -14 -9 -27 -22 -33 -38 -17 -68 -72 -68 -127 0 -63 19 -107
61 -142 28 -24 40 -28 79 -24 44 4 45 4 63 -34 23 -48 65 -70 123 -67 40 3 48
-1 89 -41 24 -24 59 -65 77 -92 39 -58 71 -63 76 -12 3 30 6 32 52 36 87 9
166 84 177 170 4 28 14 49 30 61 80 63 74 197 -11 262 -20 15 -36 36 -36 47 0
32 -29 70 -89 117 -97 78 -161 87 -225 30 l-33 -28 -23 24 c-21 22 -75 45
-105 45 -5 0 -23 -7 -40 -16z m185 -330 c0 -192 -3 -245 -12 -242 -10 4 -14
56 -16 204 -3 204 2 284 19 284 5 0 9 -99 9 -246z m219 200 c29 -37 26 -68
-10 -98 -37 -31 -58 -33 -93 -5 -30 24 -35 72 -10 107 23 33 86 31 113 -4z
m-335 -6 c22 -31 20 -60 -5 -92 -25 -32 -61 -34 -89 -4 -21 23 -24 31 -20 63
5 54 84 76 114 33z m-154 -159 c28 -31 29 -32 109 -27 74 4 81 3 81 -14 0 -16
-9 -18 -84 -18 -80 0 -86 -1 -114 -30 -36 -35 -50 -37 -86 -9 -33 26 -35 73
-4 106 30 32 64 29 98 -8z m621 -18 c36 -36 37 -65 3 -96 -35 -32 -65 -32 -98
1 -39 40 -32 83 19 112 31 18 44 14 76 -17z m-141 -26 c11 -13 2 -15 -69 -15
-65 0 -81 3 -81 15 0 12 14 15 69 15 49 0 72 -4 81 -15z m-308 -82 c26 -23 24
-78 -4 -97 -32 -22 -55 -20 -83 9 -30 29 -31 45 -4 79 24 30 63 34 91 9z m301
-35 c33 -45 -3 -118 -58 -118 -36 0 -75 42 -75 80 0 69 90 95 133 38z"/>
<path d="M880 751 c-19 -37 16 -76 58 -64 30 7 38 40 16 64 -22 24 -60 24 -74
0z"/>
<path d="M567 754 c-13 -13 -7 -51 9 -65 23 -19 49 1 49 37 0 24 -5 30 -25 32
-14 2 -29 0 -33 -4z"/>
<path d="M411 591 c-30 -30 -17 -63 23 -59 25 2 32 8 34 30 5 38 -30 56 -57
29z"/>
<path d="M1030 560 c-15 -28 4 -60 35 -60 14 0 29 8 35 20 15 28 -4 60 -35 60
-14 0 -29 -8 -35 -20z"/>
<path d="M583 454 c-7 -20 8 -48 29 -52 26 -5 50 26 38 49 -13 23 -58 25 -67
3z"/>
<path d="M870 436 c-31 -38 9 -89 54 -68 45 20 30 82 -20 82 -12 0 -27 -7 -34
-14z"/>
</g>
</svg>
